<svg xmlns="http://www.w3.org/2000/svg" xmlns:xlink="http://www.w3.org/1999/xlink" width="150" zoomAndPan="magnify" viewBox="0 0 112.5 30.000001" height="40" preserveAspectRatio="xMidYMid meet" version="1.0"><defs><g/><clipPath id="14cfde7dcc"><path d="M 102 8 L 110.445312 8 L 110.445312 20 L 102 20 Z M 102 8 " clip-rule="nonzero"/></clipPath></defs><g fill="#efefef" fill-opacity="1"><g transform="translate(1.513095, 19.011782)"><g><path d="M 5.40625 0.171875 C 4.457031 0.171875 3.625 -0.0390625 2.90625 -0.46875 C 2.195312 -0.90625 1.644531 -1.507812 1.25 -2.28125 C 0.851562 -3.0625 0.65625 -3.96875 0.65625 -5 C 0.65625 -6.039062 0.859375 -6.957031 1.265625 -7.75 C 1.671875 -8.550781 2.253906 -9.175781 3.015625 -9.625 C 3.773438 -10.070312 4.675781 -10.296875 5.71875 -10.296875 C 6.90625 -10.296875 7.890625 -10.007812 8.671875 -9.4375 C 9.453125 -8.875 9.957031 -8.09375 10.1875 -7.09375 L 8.109375 -7.09375 C 7.960938 -7.5625 7.6875 -7.925781 7.28125 -8.1875 C 6.875 -8.457031 6.351562 -8.59375 5.71875 -8.59375 C 4.707031 -8.59375 3.925781 -8.269531 3.375 -7.625 C 2.820312 -6.988281 2.546875 -6.109375 2.546875 -4.984375 C 2.546875 -3.867188 2.816406 -3.003906 3.359375 -2.390625 C 3.910156 -1.773438 4.648438 -1.46875 5.578125 -1.46875 C 6.492188 -1.46875 7.1875 -1.71875 7.65625 -2.21875 C 8.125 -2.71875 8.40625 -3.375 8.5 -4.1875 L 5.953125 -4.1875 L 5.953125 -5.578125 L 10.375 -5.578125 L 10.375 0 L 8.671875 0 L 8.515625 -1.328125 C 8.191406 -0.847656 7.78125 -0.476562 7.28125 -0.21875 C 6.789062 0.0390625 6.164062 0.171875 5.40625 0.171875 Z M 5.40625 0.171875 "/></g></g></g><g fill="#efefef" fill-opacity="1"><g transform="translate(12.701687, 19.011782)"><g><path d="M 0.9375 0 L 0.9375 -7.171875 L 2.59375 -7.171875 L 2.765625 -5.828125 C 3.023438 -6.296875 3.378906 -6.664062 3.828125 -6.9375 C 4.273438 -7.207031 4.800781 -7.34375 5.40625 -7.34375 L 5.40625 -5.390625 L 4.890625 -5.390625 C 4.484375 -5.390625 4.117188 -5.328125 3.796875 -5.203125 C 3.484375 -5.078125 3.238281 -4.859375 3.0625 -4.546875 C 2.882812 -4.242188 2.796875 -3.816406 2.796875 -3.265625 L 2.796875 0 Z M 0.9375 0 "/></g></g></g><g fill="#efefef" fill-opacity="1"><g transform="translate(18.433485, 19.011782)"><g><path d="M 4.390625 0.171875 C 3.691406 0.171875 3.0625 0.015625 2.5 -0.296875 C 1.945312 -0.617188 1.507812 -1.0625 1.1875 -1.625 C 0.863281 -2.1875 0.703125 -2.84375 0.703125 -3.59375 C 0.703125 -4.332031 0.863281 -4.984375 1.1875 -5.546875 C 1.519531 -6.109375 1.960938 -6.546875 2.515625 -6.859375 C 3.078125 -7.179688 3.707031 -7.34375 4.40625 -7.34375 C 5.082031 -7.34375 5.695312 -7.179688 6.25 -6.859375 C 6.8125 -6.546875 7.253906 -6.109375 7.578125 -5.546875 C 7.898438 -4.984375 8.0625 -4.332031 8.0625 -3.59375 C 8.0625 -2.84375 7.898438 -2.1875 7.578125 -1.625 C 7.253906 -1.0625 6.8125 -0.617188 6.25 -0.296875 C 5.6875 0.015625 5.066406 0.171875 4.390625 0.171875 Z M 4.390625 -1.4375 C 4.867188 -1.4375 5.285156 -1.613281 5.640625 -1.96875 C 5.992188 -2.332031 6.171875 -2.875 6.171875 -3.59375 C 6.171875 -4.300781 5.992188 -4.835938 5.640625 -5.203125 C 5.285156 -5.566406 4.875 -5.75 4.40625 -5.75 C 3.90625 -5.75 3.476562 -5.566406 3.125 -5.203125 C 2.78125 -4.835938 2.609375 -4.300781 2.609375 -3.59375 C 2.609375 -2.875 2.78125 -2.332031 3.125 -1.96875 C 3.476562 -1.613281 3.898438 -1.4375 4.390625 -1.4375 Z M 4.390625 -1.4375 "/></g></g></g><g fill="#efefef" fill-opacity="1"><g transform="translate(27.204877, 19.011782)"><g><path d="M 4.453125 0.171875 C 3.722656 0.171875 3.078125 0.015625 2.515625 -0.296875 C 1.953125 -0.617188 1.507812 -1.0625 1.1875 -1.625 C 0.863281 -2.195312 0.703125 -2.851562 0.703125 -3.59375 C 0.703125 -4.320312 0.863281 -4.96875 1.1875 -5.53125 C 1.507812 -6.101562 1.953125 -6.546875 2.515625 -6.859375 C 3.078125 -7.179688 3.722656 -7.34375 4.453125 -7.34375 C 5.367188 -7.34375 6.140625 -7.101562 6.765625 -6.625 C 7.398438 -6.15625 7.800781 -5.5 7.96875 -4.65625 L 6.015625 -4.65625 C 5.921875 -5.007812 5.726562 -5.28125 5.4375 -5.46875 C 5.15625 -5.664062 4.820312 -5.765625 4.4375 -5.765625 C 3.925781 -5.765625 3.492188 -5.570312 3.140625 -5.1875 C 2.785156 -4.800781 2.609375 -4.269531 2.609375 -3.59375 C 2.609375 -2.90625 2.785156 -2.367188 3.140625 -1.984375 C 3.492188 -1.597656 3.925781 -1.40625 4.4375 -1.40625 C 4.820312 -1.40625 5.15625 -1.5 5.4375 -1.6875 C 5.726562 -1.882812 5.921875 -2.160156 6.015625 -2.515625 L 7.96875 -2.515625 C 7.800781 -1.703125 7.398438 -1.050781 6.765625 -0.5625 C 6.140625 -0.0703125 5.367188 0.171875 4.453125 0.171875 Z M 4.453125 0.171875 "/></g></g></g><g fill="#efefef" fill-opacity="1"><g transform="translate(35.889419, 19.011782)"><g><path d="M 4.421875 0.171875 C 3.703125 0.171875 3.0625 0.0195312 2.5 -0.28125 C 1.9375 -0.59375 1.492188 -1.03125 1.171875 -1.59375 C 0.859375 -2.15625 0.703125 -2.800781 0.703125 -3.53125 C 0.703125 -4.269531 0.859375 -4.925781 1.171875 -5.5 C 1.492188 -6.082031 1.929688 -6.535156 2.484375 -6.859375 C 3.035156 -7.179688 3.6875 -7.34375 4.4375 -7.34375 C 5.144531 -7.34375 5.769531 -7.1875 6.3125 -6.875 C 6.851562 -6.570312 7.273438 -6.148438 7.578125 -5.609375 C 7.878906 -5.078125 8.03125 -4.484375 8.03125 -3.828125 C 8.03125 -3.722656 8.023438 -3.613281 8.015625 -3.5 C 8.015625 -3.382812 8.007812 -3.265625 8 -3.140625 L 2.546875 -3.140625 C 2.585938 -2.578125 2.78125 -2.132812 3.125 -1.8125 C 3.476562 -1.5 3.90625 -1.34375 4.40625 -1.34375 C 4.789062 -1.34375 5.109375 -1.425781 5.359375 -1.59375 C 5.617188 -1.769531 5.8125 -1.988281 5.9375 -2.25 L 7.8125 -2.25 C 7.675781 -1.800781 7.453125 -1.390625 7.140625 -1.015625 C 6.828125 -0.648438 6.441406 -0.359375 5.984375 -0.140625 C 5.523438 0.0664062 5.003906 0.171875 4.421875 0.171875 Z M 4.4375 -5.84375 C 3.988281 -5.84375 3.585938 -5.710938 3.234375 -5.453125 C 2.890625 -5.203125 2.671875 -4.816406 2.578125 -4.296875 L 6.15625 -4.296875 C 6.125 -4.765625 5.945312 -5.140625 5.625 -5.421875 C 5.3125 -5.703125 4.914062 -5.84375 4.4375 -5.84375 Z M 4.4375 -5.84375 "/></g></g></g><g fill="#efefef" fill-opacity="1"><g transform="translate(44.545018, 19.011782)"><g><path d="M 0.9375 0 L 0.9375 -7.171875 L 2.59375 -7.171875 L 2.765625 -5.828125 C 3.023438 -6.296875 3.378906 -6.664062 3.828125 -6.9375 C 4.273438 -7.207031 4.800781 -7.34375 5.40625 -7.34375 L 5.40625 -5.390625 L 4.890625 -5.390625 C 4.484375 -5.390625 4.117188 -5.328125 3.796875 -5.203125 C 3.484375 -5.078125 3.238281 -4.859375 3.0625 -4.546875 C 2.882812 -4.242188 2.796875 -3.816406 2.796875 -3.265625 L 2.796875 0 Z M 0.9375 0 "/></g></g></g><g fill="#efefef" fill-opacity="1"><g transform="translate(50.276816, 19.011782)"><g><path d="M 1.84375 3.1875 L 3.5 -0.484375 L 3.0625 -0.484375 L 0.28125 -7.171875 L 2.28125 -7.171875 L 4.296875 -2.125 L 6.390625 -7.171875 L 8.359375 -7.171875 L 3.8125 3.1875 Z M 1.84375 3.1875 "/></g></g></g><g fill="#efefef" fill-opacity="1"><g transform="translate(58.917938, 19.011782)"><g/></g></g><g fill="#efefef" fill-opacity="1"><g transform="translate(62.362806, 19.011782)"><g><path d="M 0.984375 0 L 0.984375 -10.125 L 4.734375 -10.125 C 5.546875 -10.125 6.210938 -9.988281 6.734375 -9.71875 C 7.265625 -9.445312 7.660156 -9.078125 7.921875 -8.609375 C 8.179688 -8.140625 8.3125 -7.609375 8.3125 -7.015625 C 8.3125 -6.453125 8.1875 -5.9375 7.9375 -5.46875 C 7.6875 -5.007812 7.296875 -4.632812 6.765625 -4.34375 C 6.234375 -4.0625 5.554688 -3.921875 4.734375 -3.921875 L 2.828125 -3.921875 L 2.828125 0 Z M 2.828125 -5.421875 L 4.609375 -5.421875 C 5.253906 -5.421875 5.71875 -5.5625 6 -5.84375 C 6.289062 -6.132812 6.4375 -6.523438 6.4375 -7.015625 C 6.4375 -7.515625 6.289062 -7.90625 6 -8.1875 C 5.71875 -8.476562 5.253906 -8.625 4.609375 -8.625 L 2.828125 -8.625 Z M 2.828125 -5.421875 "/></g></g></g><g fill="#efefef" fill-opacity="1"><g transform="translate(71.148674, 19.011782)"><g><path d="M 1.9375 -8.296875 C 1.601562 -8.296875 1.328125 -8.394531 1.109375 -8.59375 C 0.890625 -8.789062 0.78125 -9.046875 0.78125 -9.359375 C 0.78125 -9.671875 0.890625 -9.925781 1.109375 -10.125 C 1.328125 -10.320312 1.601562 -10.421875 1.9375 -10.421875 C 2.269531 -10.421875 2.546875 -10.320312 2.765625 -10.125 C 2.984375 -9.925781 3.09375 -9.671875 3.09375 -9.359375 C 3.09375 -9.046875 2.984375 -8.789062 2.765625 -8.59375 C 2.546875 -8.394531 2.269531 -8.296875 1.9375 -8.296875 Z M 1.015625 0 L 1.015625 -7.171875 L 2.859375 -7.171875 L 2.859375 0 Z M 1.015625 0 "/></g></g></g><g fill="#efefef" fill-opacity="1"><g transform="translate(75.013293, 19.011782)"><g><path d="M 4.453125 0.171875 C 3.722656 0.171875 3.078125 0.015625 2.515625 -0.296875 C 1.953125 -0.617188 1.507812 -1.0625 1.1875 -1.625 C 0.863281 -2.195312 0.703125 -2.851562 0.703125 -3.59375 C 0.703125 -4.320312 0.863281 -4.96875 1.1875 -5.53125 C 1.507812 -6.101562 1.953125 -6.546875 2.515625 -6.859375 C 3.078125 -7.179688 3.722656 -7.34375 4.453125 -7.34375 C 5.367188 -7.34375 6.140625 -7.101562 6.765625 -6.625 C 7.398438 -6.15625 7.800781 -5.5 7.96875 -4.65625 L 6.015625 -4.65625 C 5.921875 -5.007812 5.726562 -5.28125 5.4375 -5.46875 C 5.15625 -5.664062 4.820312 -5.765625 4.4375 -5.765625 C 3.925781 -5.765625 3.492188 -5.570312 3.140625 -5.1875 C 2.785156 -4.800781 2.609375 -4.269531 2.609375 -3.59375 C 2.609375 -2.90625 2.785156 -2.367188 3.140625 -1.984375 C 3.492188 -1.597656 3.925781 -1.40625 4.4375 -1.40625 C 4.820312 -1.40625 5.15625 -1.5 5.4375 -1.6875 C 5.726562 -1.882812 5.921875 -2.160156 6.015625 -2.515625 L 7.96875 -2.515625 C 7.800781 -1.703125 7.398438 -1.050781 6.765625 -0.5625 C 6.140625 -0.0703125 5.367188 0.171875 4.453125 0.171875 Z M 4.453125 0.171875 "/></g></g></g><g fill="#efefef" fill-opacity="1"><g transform="translate(83.697835, 19.011782)"><g><path d="M 0.9375 0 L 0.9375 -10.421875 L 2.796875 -10.421875 L 2.796875 -4.265625 L 5.34375 -7.171875 L 7.53125 -7.171875 L 4.59375 -3.90625 L 8.015625 0 L 5.703125 0 L 2.796875 -3.609375 L 2.796875 0 Z M 0.9375 0 "/></g></g></g><g fill="#03703c" fill-opacity="1"><g transform="translate(91.91048, 19.011782)"><g><path d="M 4.890625 0.171875 C 4.148438 0.171875 3.476562 0.0234375 2.875 -0.265625 C 2.28125 -0.554688 1.804688 -1 1.453125 -1.59375 C 1.097656 -2.195312 0.921875 -2.957031 0.921875 -3.875 L 0.921875 -10.125 L 2.78125 -10.125 L 2.78125 -3.859375 C 2.78125 -3.066406 2.96875 -2.476562 3.34375 -2.09375 C 3.726562 -1.707031 4.257812 -1.515625 4.9375 -1.515625 C 5.601562 -1.515625 6.128906 -1.707031 6.515625 -2.09375 C 6.898438 -2.476562 7.09375 -3.066406 7.09375 -3.859375 L 7.09375 -10.125 L 8.9375 -10.125 L 8.9375 -3.875 C 8.9375 -2.957031 8.753906 -2.195312 8.390625 -1.59375 C 8.023438 -1 7.535156 -0.554688 6.921875 -0.265625 C 6.304688 0.0234375 5.628906 0.171875 4.890625 0.171875 Z M 4.890625 0.171875 "/></g></g></g><g clip-path="url(#14cfde7dcc)"><g fill="#03703c" fill-opacity="1"><g transform="translate(101.767436, 19.011782)"><g><path d="M 0.984375 0 L 0.984375 -10.125 L 4.734375 -10.125 C 5.546875 -10.125 6.210938 -9.988281 6.734375 -9.71875 C 7.265625 -9.445312 7.660156 -9.078125 7.921875 -8.609375 C 8.179688 -8.140625 8.3125 -7.609375 8.3125 -7.015625 C 8.3125 -6.453125 8.1875 -5.9375 7.9375 -5.46875 C 7.6875 -5.007812 7.296875 -4.632812 6.765625 -4.34375 C 6.234375 -4.0625 5.554688 -3.921875 4.734375 -3.921875 L 2.828125 -3.921875 L 2.828125 0 Z M 2.828125 -5.421875 L 4.609375 -5.421875 C 5.253906 -5.421875 5.71875 -5.5625 6 -5.84375 C 6.289062 -6.132812 6.4375 -6.523438 6.4375 -7.015625 C 6.4375 -7.515625 6.289062 -7.90625 6 -8.1875 C 5.71875 -8.476562 5.253906 -8.625 4.609375 -8.625 L 2.828125 -8.625 Z M 2.828125 -5.421875 "/></g></g></g></g></svg>